<?xml version="1.0" encoding="UTF-8"?>
<svg version="1.1" xmlns="http://www.w3.org/2000/svg" width="512" height="512">
<path d="M0 0 C2.89203098 0.10343805 4.36399263 0.24412129 6.59838867 2.14160156 C7.1369751 2.8012793 7.67556152 3.46095703 8.23046875 4.140625 C9.1277771 5.23286377 9.1277771 5.23286377 10.04321289 6.34716797 C12.75817259 9.84248659 15.37998095 13.38803337 17.9375 17 C19.07674752 18.59250186 20.21607261 20.18494822 21.35546875 21.77734375 C21.92958496 22.58284668 22.50370117 23.38834961 23.09521484 24.21826172 C25.80020954 28.00925371 28.52395325 31.78662993 31.25 35.5625 C31.78318848 36.30161621 32.31637695 37.04073242 32.86572266 37.80224609 C36.81493746 43.26775121 40.8059735 48.70140969 44.8125 54.125 C52.09192622 63.97907821 59.26080324 73.91074334 66.41699219 83.85449219 C68.02715497 86.09110128 69.63834649 88.32696489 71.25 90.5625 C71.77722656 91.29452637 72.30445313 92.02655273 72.84765625 92.78076172 C75.73871164 96.78571345 78.65470247 100.77027148 81.6015625 104.734375 C82.5462439 106.00680054 82.5462439 106.00680054 83.51000977 107.30493164 C84.71797243 108.92909509 85.92919537 110.55084087 87.14428711 112.16967773 C95.84184656 123.86420614 95.84184656 123.86420614 95.75 129.375 C94.84472052 132.51330219 94.44883537 133.79984474 91.8125 135.625 C89.1062563 136.52708123 87.57399014 136.74727599 84.80004883 136.73852539 C83.99944534 136.73844986 83.19884186 136.73837433 82.37397766 136.73829651 C81.51451035 136.73313522 80.65504303 136.72797394 79.76953125 136.72265625 C78.8859343 136.7212413 78.00233734 136.71982635 77.09196472 136.71836853 C74.26960872 136.71277069 71.44733203 136.70021861 68.625 136.6875 C66.71158969 136.68248472 64.79817813 136.67792186 62.88476562 136.67382812 C58.19397986 136.66280197 53.50325337 136.64553883 48.8125 136.625 C48.87316419 159.44395304 48.95075523 182.2627935 49.04821491 205.08162022 C49.09308245 215.67801986 49.13251776 226.27438658 49.15893555 236.87084961 C49.18198907 246.11224238 49.21546861 255.35353015 49.26120156 264.59483951 C49.28503499 269.48303217 49.30382826 274.37112147 49.31011391 279.2593708 C49.31620978 283.87147775 49.33636989 288.48332058 49.36677551 293.09532928 C49.37548421 294.77735743 49.37929342 296.45942021 49.37750816 298.14146996 C49.36024161 321.94161269 55.28780794 343.41237098 72.15625 361.09375 C87.59190316 375.80301948 106.58325019 382.19829057 127.44921875 384.03515625 C130.86682389 384.63452719 132.4196883 385.15631866 134.8125 387.625 C135.91623378 391.59844161 136.22793583 393.71499772 134.5 397.5 C132.8125 399.625 132.8125 399.625 130.8125 400.625 C127.81545724 400.7394675 124.84114378 400.79288362 121.84326172 400.80200195 C120.91282043 400.80857315 119.98237915 400.81514435 119.02374268 400.82191467 C115.92989014 400.84169426 112.83608654 400.85332823 109.7421875 400.86328125 C108.68280094 400.86735678 107.62341438 400.8714323 106.5319252 400.87563133 C100.91142216 400.89652411 95.29094367 400.91080498 89.67041016 400.92016602 C83.89870255 400.93116301 78.1273877 400.9654753 72.35581779 401.00533772 C67.89270379 401.03167018 63.42968034 401.03987311 58.96649551 401.04344749 C56.84172068 401.04828034 54.71694898 401.0597984 52.59225082 401.07848549 C26.09653356 401.29680092 2.95545617 394.60141728 -17.1875 376.625 C-18.033125 375.87476563 -18.87875 375.12453125 -19.75 374.3515625 C-37.01593806 358.11078951 -47.53594438 334.55736516 -48.31054783 310.8607254 C-48.30962604 309.55546654 -48.30870424 308.25020767 -48.30775452 306.90539551 C-48.30860894 306.17168779 -48.30946337 305.43798007 -48.31034368 304.68203878 C-48.31197826 302.24698463 -48.30651055 299.81200083 -48.30102539 297.37695312 C-48.30074306 295.62210085 -48.30090216 293.86724845 -48.3014679 292.11239624 C-48.30175406 287.36507707 -48.29588654 282.61778332 -48.28889394 277.87047005 C-48.28263032 272.9030279 -48.28205422 267.93558513 -48.28086853 262.96813965 C-48.27776408 253.56900275 -48.26956264 244.16987752 -48.25951904 234.77074575 C-48.24833038 224.06701698 -48.24284052 213.36328765 -48.23782361 202.65955448 C-48.22737928 180.64802981 -48.20979701 158.63651564 -48.1875 136.625 C-49.965802 136.64856567 -49.965802 136.64856567 -51.7800293 136.67260742 C-56.187512 136.72699565 -60.59496515 136.76138246 -65.00268555 136.78979492 C-66.90866081 136.80486128 -68.81460152 136.82531824 -70.72045898 136.85131836 C-73.46346576 136.88779642 -76.20601328 136.90474792 -78.94921875 136.91796875 C-79.79836349 136.93345261 -80.64750824 136.94893646 -81.52238464 136.96488953 C-86.23463885 136.96622348 -89.37055283 136.71432841 -93.1875 133.625 C-94.79897742 130.40204517 -94.66979674 127.11861168 -94.1875 123.625 C-92.87139219 121.18292184 -91.70384568 119.37080565 -90 117.25 C-89.07361207 116.02780336 -88.14786211 114.80512296 -87.22265625 113.58203125 C-86.72781738 112.94088379 -86.23297852 112.29973633 -85.72314453 111.63916016 C-83.04775826 108.13010821 -80.5049678 104.52579643 -77.9375 100.9375 C-72.81395141 93.83355387 -67.62536861 86.77883347 -62.42114258 79.73388672 C-56.27876792 71.4106412 -50.22983081 63.02100805 -44.1875 54.625 C-36.37784491 43.77323946 -28.51576296 32.96375808 -20.5703125 22.2109375 C-18.34758913 19.20192733 -16.13390998 16.1866512 -13.9296875 13.1640625 C-13.17002686 12.12318481 -13.17002686 12.12318481 -12.39501953 11.0612793 C-11.44925825 9.76430314 -10.50484075 8.46634562 -9.56201172 7.16723633 C-4.54878585 0.29751095 -4.54878585 0.29751095 0 0 Z M-0.1875 23.625 C-9.26814518 35.90102949 -18.26819158 48.23134137 -27.1875 60.625 C-33.80886966 69.82560069 -40.45252003 79.00710266 -47.1875 88.125 C-51.95856729 94.58889729 -56.71589623 101.0623549 -61.4375 107.5625 C-62.26121094 108.68978516 -62.26121094 108.68978516 -63.1015625 109.83984375 C-63.60945313 110.54109375 -64.11734375 111.24234375 -64.640625 111.96484375 C-65.08567383 112.57706787 -65.53072266 113.18929199 -65.98925781 113.82006836 C-67.23140083 115.69112853 -68.22518476 117.59782314 -69.1875 119.625 C-68.17324951 119.6343457 -67.15899902 119.64369141 -66.11401367 119.65332031 C-62.35087158 119.69319362 -58.5885494 119.75894342 -54.82592773 119.83251953 C-53.19745415 119.86074489 -51.56884317 119.88195172 -49.94018555 119.89599609 C-47.59873029 119.91740532 -45.25892955 119.96403964 -42.91796875 120.015625 C-41.82563179 120.01746796 -41.82563179 120.01746796 -40.71122742 120.01934814 C-35.6851347 120.1649921 -35.6851347 120.1649921 -33.49480438 122.18970871 C-31.72272169 125.49080492 -31.77343012 128.48187264 -31.80895996 132.13555908 C-31.80442983 132.89539557 -31.7998997 133.65523206 -31.7952323 134.4380939 C-31.78359707 136.98657231 -31.79326011 139.53452696 -31.80273438 142.08300781 C-31.7986294 143.90983418 -31.79316898 145.73665793 -31.78645325 147.56347656 C-31.77471633 151.50092946 -31.77224845 155.43824213 -31.77680969 159.37570953 C-31.78362038 165.61421345 -31.76774588 171.85253329 -31.74841309 178.09100342 C-31.71052199 191.35232563 -31.6977721 204.61363199 -31.6875 217.875 C-31.67641644 232.15140423 -31.66086992 246.42772342 -31.61678743 260.70406985 C-31.59853157 266.89156956 -31.59450359 273.07885881 -31.60172272 279.26637888 C-31.60325708 283.13928931 -31.59238128 287.01209698 -31.57834435 290.88497925 C-31.5743799 292.66497151 -31.57540035 294.44498395 -31.58211708 296.22496796 C-31.63032807 310.07961085 -31.02136429 324.26527892 -24.9375 337 C-24.63376465 337.66080566 -24.3300293 338.32161133 -24.01708984 339.00244141 C-21.33184378 344.66790899 -18.14720148 349.75407015 -14.1875 354.625 C-13.17042969 355.88570313 -13.17042969 355.88570313 -12.1328125 357.171875 C1.78457928 373.51614293 21.47675811 382.71921877 42.72827148 384.45507812 C48.48436241 384.77220306 54.23712766 384.72788671 60 384.6875 C61.23814453 384.68298828 62.47628906 384.67847656 63.75195312 384.67382812 C66.77218785 384.66216699 69.79231677 384.64580236 72.8125 384.625 C70.28357462 382.07769914 67.73049226 379.64259421 65 377.3125 C63.60268181 376.08502159 62.20681034 374.85589401 60.8125 373.625 C60.24402344 373.13644531 59.67554688 372.64789063 59.08984375 372.14453125 C43.46303895 357.77378168 34.79008255 335.38116973 32.8125 314.625 C32.71968488 311.90010092 32.66462486 309.20078149 32.66532898 306.47674561 C32.66165229 305.69685752 32.6579756 304.91696944 32.6541875 304.11344838 C32.64324726 301.52191442 32.63932358 298.93042067 32.63549805 296.33886719 C32.62922664 294.4722786 32.62257925 292.60569124 32.61558533 290.73910522 C32.59464275 284.6333705 32.58419987 278.52763578 32.57421875 272.421875 C32.5701691 270.31696815 32.56605211 268.21206143 32.56186867 266.10715485 C32.54284748 256.22722514 32.52860369 246.34730282 32.5202567 236.46735835 C32.51046144 225.06276914 32.4840696 213.65837283 32.44375581 202.25385165 C32.41364406 193.43331699 32.39879298 184.61283786 32.39547569 175.79225278 C32.39312181 170.52495569 32.38411568 165.25786545 32.35901451 159.99062347 C32.33581182 155.04276693 32.33146893 150.09525469 32.34177589 145.14735794 C32.34227308 143.33005506 32.33589902 141.51273563 32.32221985 139.69548416 C32.30461281 137.21834541 32.31155056 134.74245786 32.32475281 132.26531982 C32.31378356 131.54314797 32.30281432 130.82097612 32.29151267 130.07692027 C32.33485417 126.71867793 32.60083406 124.91030058 34.6252718 122.18159866 C37.75186926 119.95647308 40.71852452 120.02211408 44.421875 120.015625 C45.14868469 119.99908875 45.87549438 119.98255249 46.62432861 119.96551514 C48.93713869 119.91707639 51.24929157 119.89567511 53.5625 119.875 C55.13414757 119.84683659 56.70576459 119.81690863 58.27734375 119.78515625 C62.12234169 119.71131953 65.96697572 119.66172052 69.8125 119.625 C68.0521591 115.97533403 65.8752252 112.77129897 63.5 109.5 C62.84402832 108.58963989 62.84402832 108.58963989 62.17480469 107.66088867 C61.22309229 106.34089484 60.27007762 105.02183919 59.31591797 103.70361328 C57.79125193 101.5956226 56.27203566 99.48379582 54.75390625 97.37109375 C48.57555056 88.78234817 42.33255857 80.24379111 36.04614258 71.73388672 C32.08395958 66.36491727 28.15387942 60.97399912 24.25 55.5625 C23.72341797 54.83329346 23.19683594 54.10408691 22.65429688 53.3527832 C19.85205122 49.46796865 17.06258946 45.57446997 14.28515625 41.671875 C13.41322632 40.45189819 13.41322632 40.45189819 12.52368164 39.20727539 C11.4160668 37.65718351 10.31213759 36.10444863 9.21264648 34.54858398 C6.34159707 30.53775507 3.41622021 26.99686321 -0.1875 23.625 Z " fill="#000000" transform="translate(150.1875,55.375)"/>
<path d="M0 0 C1.39566193 -0.0098568 1.39566193 -0.0098568 2.81951904 -0.01991272 C5.91337158 -0.03969231 9.00717517 -0.05132628 12.10107422 -0.0612793 C13.16046078 -0.06535482 14.21984734 -0.06943035 15.31133652 -0.07362938 C20.93183956 -0.09452216 26.55231805 -0.10880302 32.17285156 -0.11816406 C37.94455917 -0.12916106 43.71587402 -0.16347335 49.48744392 -0.20333576 C53.95055793 -0.22966823 58.41358138 -0.23787116 62.8767662 -0.24144554 C65.00154104 -0.24627839 67.12631274 -0.25779645 69.25101089 -0.27648354 C95.74672816 -0.49479897 118.88780555 6.20058468 139.03076172 24.17700195 C139.87638672 24.92723633 140.72201172 25.6774707 141.59326172 26.45043945 C158.24588479 42.11431303 168.45109666 64.39507814 170.03076172 87.17700195 C170.17180071 92.93382836 170.15736225 98.68855508 170.14428711 104.44677734 C170.1440047 106.19192503 170.14416402 107.93707284 170.14472961 109.68222046 C170.1450155 114.39848975 170.1391526 119.1147334 170.13215566 123.83099675 C170.12588728 128.76773653 170.12531557 133.70447695 170.12413025 138.64122009 C170.12102719 147.98011659 170.11282765 157.31900132 170.10278076 166.65789264 C170.09158774 177.29393125 170.08610114 187.92997042 170.08108532 198.56601346 C170.07064416 220.43634951 170.05306462 242.30667499 170.03076172 264.17700195 C171.1807666 264.1612915 172.33077148 264.14558105 173.515625 264.12939453 C177.79826809 264.07493327 182.08088078 264.04059309 186.36376953 264.01220703 C188.2144079 263.99715724 190.06501083 263.97671262 191.91552734 263.95068359 C194.58163217 263.91413216 197.2472638 263.89723741 199.91357422 263.8840332 C200.7356839 263.86854935 201.55779358 263.85306549 202.40481567 263.83711243 C207.35349753 263.83567547 210.7466719 264.41563123 215.03076172 267.17700195 C216.64223913 270.39995678 216.51305846 273.68339027 216.03076172 277.17700195 C214.71465391 279.61908011 213.5471074 281.4311963 211.84326172 283.55200195 C210.91687379 284.77419859 209.99112383 285.99687899 209.06591797 287.2199707 C208.5710791 287.86111816 208.07624023 288.50226563 207.56640625 289.1628418 C204.89101998 292.67189374 202.34822952 296.27620553 199.78076172 299.86450195 C194.65721313 306.96844808 189.46863033 314.02316848 184.2644043 321.06811523 C178.12202963 329.39136076 172.07309252 337.7809939 166.03076172 346.17700195 C158.22110663 357.0287625 150.35902468 367.83824387 142.41357422 378.59106445 C140.19085085 381.60007462 137.9771717 384.61535075 135.77294922 387.63793945 C135.26650879 388.33185791 134.76006836 389.02577637 134.23828125 389.74072266 C133.29251997 391.03769881 132.34810247 392.33565633 131.40527344 393.63476562 C126.76398629 399.99481581 126.76398629 399.99481581 124.11279297 400.65356445 C120.60927197 400.8827104 118.0117454 401.01006698 115.24487305 398.66040039 C114.70628662 398.00072266 114.1677002 397.34104492 113.61279297 396.66137695 C112.71548462 395.56913818 112.71548462 395.56913818 111.80004883 394.45483398 C109.08508913 390.95951537 106.46328077 387.41396858 103.90576172 383.80200195 C102.7665142 382.20950009 101.6271891 380.61705373 100.48779297 379.0246582 C99.91367676 378.21915527 99.33956055 377.41365234 98.74804688 376.58374023 C96.04305218 372.79274824 93.31930847 369.01537202 90.59326172 365.23950195 C90.06007324 364.50038574 89.52688477 363.76126953 88.97753906 362.99975586 C85.02832426 357.53425074 81.03728822 352.10059227 77.03076172 346.67700195 C69.7513355 336.82292374 62.58245848 326.89125862 55.42626953 316.94750977 C53.81610675 314.71090067 52.20491522 312.47503707 50.59326172 310.23950195 C50.06603516 309.50747559 49.53880859 308.77544922 48.99560547 308.02124023 C46.10455008 304.0162885 43.18855924 300.03173048 40.24169922 296.06762695 C39.61191162 295.21934326 38.98212402 294.37105957 38.33325195 293.49707031 C37.12528928 291.87290687 35.91406635 290.25116108 34.69897461 288.63232422 C26.00141515 276.93779582 26.00141515 276.93779582 26.09326172 271.42700195 C26.9985412 268.28869976 27.39442635 267.00215721 30.03076172 265.17700195 C32.73700542 264.27492072 34.26927157 264.05472596 37.04321289 264.06347656 C37.84381638 264.06355209 38.64441986 264.06362762 39.46928406 264.06370544 C40.75848503 264.07144737 40.75848503 264.07144737 42.07373047 264.0793457 C42.95732742 264.08076065 43.84092438 264.0821756 44.751297 264.08363342 C47.573653 264.08923126 50.39592969 264.10178334 53.21826172 264.11450195 C55.13167203 264.11951723 57.04508359 264.12408009 58.95849609 264.12817383 C63.64928186 264.13919998 68.34000834 264.15646312 73.03076172 264.17700195 C72.97009753 241.35804891 72.89250649 218.53920846 72.79504681 195.72038174 C72.75017927 185.12398209 72.71074396 174.52761538 72.68432617 163.93115234 C72.66127265 154.68975957 72.62779311 145.44847181 72.58206016 136.20716244 C72.55822673 131.31896978 72.53943346 126.43088048 72.53314781 121.54263115 C72.52705194 116.9305242 72.50689183 112.31868137 72.47648621 107.70667267 C72.46777751 106.02464452 72.4639683 104.34258175 72.46575356 102.660532 C72.48332788 78.43615116 66.18725972 56.59072062 48.84326172 38.86450195 C33.81217762 24.50146604 14.6848639 18.55308019 -5.60595703 16.7668457 C-9.02356217 16.16747477 -10.57642658 15.64568329 -12.96923828 13.17700195 C-14.07297206 9.20356034 -14.38467411 7.08700424 -12.65673828 3.30200195 C-9.28713537 -0.94120172 -5.01128882 0.01524229 0 0 Z M49.03076172 16.17700195 C51.5596871 18.72430281 54.11276946 21.15940774 56.84326172 23.48950195 C58.24057991 24.71698037 59.63645138 25.94610795 61.03076172 27.17700195 C61.59923828 27.66555664 62.16771484 28.15411133 62.75341797 28.6574707 C78.38022277 43.02822027 87.05317917 65.42083222 89.03076172 86.17700195 C89.12357684 88.90190103 89.17863686 91.60122046 89.17793274 94.32525635 C89.18160943 95.10514443 89.18528612 95.88503252 89.18907422 96.68855357 C89.20001446 99.28008753 89.20393813 101.87158128 89.20776367 104.46313477 C89.21403507 106.32972335 89.22068247 108.19631071 89.22767639 110.06289673 C89.24861897 116.16863145 89.25906185 122.27436617 89.26904297 128.38012695 C89.27309262 130.4850338 89.2772096 132.58994052 89.28139305 134.69484711 C89.30041424 144.57477681 89.31465802 154.45469913 89.32300502 164.3346436 C89.33280028 175.73923281 89.35919211 187.14362912 89.39950591 198.5481503 C89.42961766 207.36868496 89.44446874 216.18916409 89.44778603 225.00974917 C89.45013991 230.27704626 89.45914604 235.5441365 89.48424721 240.81137848 C89.5074499 245.75923502 89.51179279 250.70674726 89.50148582 255.65464401 C89.50098864 257.4719469 89.5073627 259.28926632 89.52104187 261.10651779 C89.53864891 263.58365655 89.53171116 266.05954409 89.51850891 268.53668213 C89.52947816 269.25885398 89.5404474 269.98102583 89.55174905 270.72508168 C89.50840754 274.08332402 89.24242766 275.89170137 87.21798992 278.62040329 C84.09139246 280.84552887 81.1247372 280.77988787 77.42138672 280.78637695 C76.69457703 280.80291321 75.96776733 280.81944946 75.21893311 280.83648682 C72.90612302 280.88492556 70.59397015 280.90632684 68.28076172 280.92700195 C66.70911414 280.95516536 65.13749713 280.98509332 63.56591797 281.0168457 C59.72092003 281.09068242 55.876286 281.14028144 52.03076172 281.17700195 C53.79110261 284.82666792 55.96803651 288.03070298 58.34326172 291.30200195 C58.78057617 291.90890869 59.21789062 292.51581543 59.66845703 293.14111328 C60.62016943 294.46110711 61.5731841 295.78016276 62.52734375 297.09838867 C64.05200979 299.20637936 65.57122606 301.31820613 67.08935547 303.4309082 C73.26771116 312.01965378 79.51070315 320.55821084 85.79711914 329.06811523 C89.75930214 334.43708469 93.6893823 339.82800283 97.59326172 345.23950195 C98.11984375 345.9687085 98.64642578 346.69791504 99.18896484 347.44921875 C101.9912105 351.3340333 104.78067226 355.22753199 107.55810547 359.13012695 C108.13939209 359.94344482 108.72067871 360.7567627 109.31958008 361.59472656 C110.42719492 363.14481845 111.53112413 364.69755332 112.63061523 366.25341797 C115.50166465 370.26424688 118.42704151 373.80513875 122.03076172 377.17700195 C128.91017777 367.87679116 135.77298746 358.56611269 142.53076172 349.17700195 C146.99095172 342.9804436 151.49335817 336.81724158 156.03076172 330.67700195 C161.66276831 323.05329251 167.23685725 315.39012901 172.77294922 307.6965332 C175.05929554 304.51950224 177.35778344 301.35166681 179.66357422 298.1887207 C180.258396 297.37089111 180.85321777 296.55306152 181.46606445 295.71044922 C182.60651671 294.14286367 183.74914637 292.57685915 184.89428711 291.01269531 C185.40725342 290.30636963 185.92021973 289.60004395 186.44873047 288.87231445 C186.90014404 288.25372559 187.35155762 287.63513672 187.81665039 286.99780273 C189.06758893 285.12177224 190.06570325 283.21275556 191.03076172 281.17700195 C190.01651123 281.16765625 189.00226074 281.15831055 187.95727539 281.14868164 C184.1941333 281.10880833 180.43181112 281.04305853 176.66918945 280.96948242 C175.04071587 280.94125706 173.41210489 280.92005023 171.78344727 280.90600586 C169.441992 280.88459664 167.10219127 280.83796232 164.76123047 280.78637695 C164.03300583 280.78514832 163.30478119 280.78391968 162.55448914 280.78265381 C157.52839642 280.63700985 157.52839642 280.63700985 155.3380661 278.61229324 C153.56598341 275.31119703 153.61669184 272.32012932 153.65222168 268.66644287 C153.64769155 267.90660638 153.64316142 267.14676989 153.63849401 266.36390805 C153.62685879 263.81542964 153.63652183 261.267475 153.64599609 258.71899414 C153.64189112 256.89216777 153.63643069 255.06534402 153.62971497 253.23852539 C153.61797805 249.3010725 153.61551017 245.36375983 153.62007141 241.42629242 C153.6268821 235.1877885 153.6110076 228.94946866 153.5916748 222.71099854 C153.55378371 209.44967632 153.54103382 196.18836997 153.53076172 182.92700195 C153.51967816 168.65059772 153.50413164 154.37427853 153.46004915 140.0979321 C153.44179329 133.9104324 153.43776531 127.72314314 153.44498444 121.53562307 C153.4465188 117.66271265 153.435643 113.78990498 153.42160606 109.91702271 C153.41764162 108.13703044 153.41866207 106.357018 153.4253788 104.577034 C153.47358979 90.72239111 152.86462601 76.53672303 146.78076172 63.80200195 C146.47702637 63.14119629 146.17329102 62.48039062 145.86035156 61.79956055 C143.1751055 56.13409296 139.9904632 51.04793181 136.03076172 46.17700195 C135.35271484 45.3365332 134.67466797 44.49606445 133.97607422 43.63012695 C120.05868244 27.28585902 100.36650361 18.08278318 79.11499023 16.34692383 C73.35889931 16.02979889 67.60613406 16.07411525 61.84326172 16.11450195 C60.60511719 16.11901367 59.36697266 16.12352539 58.09130859 16.12817383 C55.07107387 16.13983497 52.05094494 16.15619959 49.03076172 16.17700195 Z " fill="#000000" transform="translate(239.96923828125,55.822998046875)"/>
</svg>
