<?xml version="1.0" encoding="UTF-8"?>
<svg version="1.1" xmlns="http://www.w3.org/2000/svg" width="512" height="512">
<path d="M0 0 C1.56170469 -0.00599519 3.12340643 -0.01280299 4.68510437 -0.02035522 C8.90241022 -0.03792481 13.11963475 -0.04270685 17.33697367 -0.0439868 C19.9801291 -0.04541446 22.62326427 -0.0496957 25.26641464 -0.05498123 C34.51144457 -0.07345383 43.75641707 -0.0816556 53.00146484 -0.08007812 C61.57995877 -0.0788785 70.1582004 -0.09995283 78.73663056 -0.13156545 C86.13321128 -0.15783833 93.52971018 -0.16844078 100.92633712 -0.16716731 C105.32990974 -0.16666076 109.73325802 -0.17217135 114.1367836 -0.19352341 C118.2853062 -0.21309179 122.43339478 -0.21290537 126.58193398 -0.19849014 C128.09103223 -0.19642354 129.60015902 -0.20097206 131.10920906 -0.21321106 C145.36900024 -0.32122751 159.64576774 1.42090128 171.33935547 10.29052734 C172.17982422 10.92732422 173.02029297 11.56412109 173.88623047 12.22021484 C185.27760661 21.64398965 191.4153716 33.76903201 193.33935547 48.29052734 C193.97458393 57.16054925 193.82178489 66.06547733 193.74493122 74.95203781 C193.71960086 78.38457737 193.71755105 81.81713725 193.71282959 85.24975586 C193.70049127 91.72339417 193.66779642 98.19675612 193.62743163 104.67027378 C193.58242563 112.0513599 193.56065511 119.43246054 193.54064989 126.81365013 C193.49905331 141.97276209 193.42888333 157.13161683 193.33935547 172.29052734 C193.99935547 171.96052734 194.65935547 171.63052734 195.33935547 171.29052734 C197.48688274 171.18756388 199.63767808 171.15098675 201.78765869 171.14335632 C202.45735931 171.13967964 203.12705993 171.13600295 203.81705451 171.13221484 C206.07221718 171.12115901 208.32733379 171.11733081 210.58251953 171.11352539 C212.19554796 171.10726167 213.80857495 171.10061495 215.42160034 171.09361267 C220.73271678 171.07254134 226.04383358 171.06220055 231.35498047 171.05224609 C233.18538173 171.04819827 235.01578283 171.04408135 236.84618378 171.03989601 C245.4543188 171.02082969 254.06244522 171.00660736 262.67059731 170.99828404 C272.58774733 170.98853609 282.50467268 170.96228681 292.42174363 170.92178315 C300.09582648 170.89152404 307.76984535 170.87680551 315.44398665 170.87350303 C320.02200641 170.8711617 324.59978659 170.86232306 329.177742 170.83704185 C333.49520863 170.81358735 337.81228101 170.8095969 342.12979507 170.81980324 C343.70423578 170.82029469 345.27869702 170.81409137 346.85307693 170.80024719 C364.83976248 170.65109464 378.7164625 175.11573717 392.33935547 187.29052734 C401.07569482 197.94942681 406.44541635 209.19789868 406.47979736 223.11305237 C406.48425405 224.12356491 406.48425405 224.12356491 406.48880076 225.15449184 C406.49745101 227.40500923 406.49899291 229.65547319 406.50048828 231.90600586 C406.50511919 233.52272148 406.51014422 235.13943602 406.51553345 236.75614929 C406.52863632 241.14494832 406.53509871 245.53373206 406.53954411 249.92254758 C406.54247928 252.66832194 406.54658501 255.41409216 406.55104828 258.15986443 C406.56471993 266.76158044 406.57438725 275.36328696 406.57825017 283.96501309 C406.58272508 293.87362189 406.60024801 303.78209235 406.62925076 313.69065911 C406.65092105 321.36222441 406.66095736 329.03375096 406.66229129 336.70534652 C406.66333583 341.28097511 406.66916817 345.85647359 406.6871109 350.43206978 C406.70368345 354.74213598 406.70570291 359.05197559 406.69697189 363.36206245 C406.69620631 364.93572602 406.70048038 366.50940222 406.71043015 368.08303452 C406.8163383 385.89143736 403.23131048 399.83796175 390.75732422 413.00146484 C376.78113532 426.23255805 361.22804187 428.5953562 342.67871094 428.58105469 C341.11700625 428.58704987 339.5553045 428.59385767 337.99360657 428.60140991 C333.77630072 428.6189795 329.55907619 428.62376154 325.34173727 428.62504148 C322.69858184 428.62646914 320.05544667 428.63075039 317.4122963 428.63603592 C308.16726636 428.65450852 298.92229387 428.66271029 289.67724609 428.66113281 C281.09875216 428.65993319 272.52051054 428.68100752 263.94208038 428.71262014 C256.54549966 428.73889302 249.14900076 428.74949547 241.75237381 428.74822199 C237.34880119 428.74771545 232.94545292 428.75322604 228.54192734 428.77457809 C224.39340473 428.79414648 220.24531616 428.79396006 216.09677696 428.77954483 C214.5876787 428.77747822 213.07855192 428.78202675 211.56950188 428.79426575 C192.89867687 428.93569533 177.55504254 424.8080601 163.66357422 411.76708984 C152.06255887 399.40567181 149.21749103 384.68332202 149.1340332 368.31835938 C149.12413361 367.11779404 149.11423401 365.9172287 149.10403442 364.68028259 C149.07792802 361.40182922 149.05603264 358.12338062 149.03603244 354.84488535 C149.01409657 351.41356249 148.98674523 347.98228282 148.9599762 344.55099487 C148.91015172 338.05947157 148.86517509 331.56792416 148.82195383 325.07635391 C148.77249364 317.68334023 148.7176082 310.29036992 148.66227424 302.89739823 C148.54861158 287.69514839 148.4417386 272.49285765 148.33935547 257.29052734 C147.49158728 257.29421452 146.64381908 257.29790169 145.77036095 257.30170059 C125.09442545 257.39023132 104.41852284 257.45632415 83.74243736 257.49777603 C73.74342393 257.51835725 63.74453741 257.5463925 53.74560547 257.59228516 C45.02543537 257.63228936 36.30535723 257.65799239 27.58509791 257.66688132 C22.97238117 257.67207317 18.35992742 257.68418222 13.74729538 257.71344757 C9.39540146 257.74083191 5.04387597 257.74892644 0.69190407 257.74295807 C-0.89544243 257.74404811 -2.48280275 257.75186386 -4.07007408 257.76734924 C-21.51692522 257.92904462 -35.1958403 253.84090443 -48.66064453 242.29052734 C-58.1138172 231.68808197 -63.7572004 219.76827691 -63.80781555 205.43676758 C-63.81149224 204.75971457 -63.81516893 204.08266155 -63.81895703 203.38509178 C-63.8299437 201.12309375 -63.83382919 198.86114175 -63.83764648 196.59912109 C-63.8439151 194.97417558 -63.85056226 193.34923148 -63.8575592 191.72428894 C-63.87856085 186.39221182 -63.88896039 181.06013455 -63.89892578 175.72802734 C-63.90297529 173.88800034 -63.90709227 172.04797348 -63.91127586 170.20794678 C-63.93032178 161.55871101 -63.94455207 152.90948372 -63.95288783 144.26023102 C-63.96264761 134.29952141 -63.98893668 124.33903477 -64.02938873 114.37840366 C-64.05963048 106.66521048 -64.07436447 98.9520809 -64.07766885 91.23882961 C-64.08001081 86.63908926 -64.08885903 82.03958726 -64.11413002 77.43991089 C-64.13755621 73.10599248 -64.14158611 68.77246688 -64.13136864 64.43850136 C-64.13087662 62.8571879 -64.13709711 61.27585414 -64.15092468 59.69460106 C-64.29333026 42.42861426 -60.06071298 28.3880341 -48.11376953 15.64990234 C-34.2404907 2.30681252 -18.51406447 -0.01427432 0 0 Z " fill="#FEC343" transform="translate(84.66064453125,41.70947265625)"/>
<path d="M0 0 C1.56170469 -0.00599519 3.12340643 -0.01280299 4.68510437 -0.02035522 C8.90241022 -0.03792481 13.11963475 -0.04270685 17.33697367 -0.0439868 C19.9801291 -0.04541446 22.62326427 -0.0496957 25.26641464 -0.05498123 C34.51144457 -0.07345383 43.75641707 -0.0816556 53.00146484 -0.08007812 C61.57995877 -0.0788785 70.1582004 -0.09995283 78.73663056 -0.13156545 C86.13321128 -0.15783833 93.52971018 -0.16844078 100.92633712 -0.16716731 C105.32990974 -0.16666076 109.73325802 -0.17217135 114.1367836 -0.19352341 C118.2853062 -0.21309179 122.43339478 -0.21290537 126.58193398 -0.19849014 C128.09103223 -0.19642354 129.60015902 -0.20097206 131.10920906 -0.21321106 C145.36900024 -0.32122751 159.64576774 1.42090128 171.33935547 10.29052734 C172.17982422 10.92732422 173.02029297 11.56412109 173.88623047 12.22021484 C185.27760661 21.64398965 191.4153716 33.76903201 193.33935547 48.29052734 C193.97458393 57.16054925 193.82178489 66.06547733 193.74493122 74.95203781 C193.71960086 78.38457737 193.71755105 81.81713725 193.71282959 85.24975586 C193.70049127 91.72339417 193.66779642 98.19675612 193.62743163 104.67027378 C193.58242563 112.0513599 193.56065511 119.43246054 193.54064989 126.81365013 C193.49905331 141.97276209 193.42888333 157.13161683 193.33935547 172.29052734 C192.72370224 172.4921347 192.10804901 172.69374207 191.47373962 172.90145874 C190.66489822 173.16826447 189.85605682 173.43507019 189.02270508 173.70996094 C188.22142685 173.9734433 187.42014862 174.23692566 186.59458923 174.50839233 C172.74446781 179.3117369 161.58148661 189.75696601 155.09326172 202.79443359 C150.08307285 214.52157897 149.97543561 226.31287624 149.77685547 238.85302734 C149.73288449 241.34351484 149.68632152 243.83387601 149.63404846 246.32420349 C149.60213248 247.86435768 149.57522952 249.40462552 149.55381775 250.94496155 C149.45125846 256.17862435 149.45125846 256.17862435 148.33935547 257.29052734 C146.2194176 257.39622417 144.09590088 257.43021681 141.9733429 257.43769836 C141.30041315 257.44137505 140.6274834 257.44505174 139.93416184 257.44883984 C137.66207366 257.45991916 135.39003114 257.46372785 133.11791992 257.4675293 C131.4951869 257.47379134 129.87245533 257.48043791 128.24972534 257.48744202 C122.90070605 257.50853631 117.55168633 257.5188574 112.20263672 257.52880859 C110.36016512 257.53285579 108.51769368 257.5369727 106.6752224 257.54115868 C98.00941884 257.56023134 89.34362386 257.57445138 80.67780334 257.58277065 C70.69159331 257.59251602 60.70560655 257.61875583 50.71947509 257.65927154 C42.99445742 257.68953035 35.26950331 257.70424921 27.54442757 257.70755166 C22.93509449 257.70989337 18.32599932 257.71873669 13.71673012 257.74401283 C9.36890884 257.76746621 5.02147907 257.77145821 0.67361069 257.76125145 C-0.91211698 257.76075995 -2.49786501 257.76696495 -4.08353233 257.7808075 C-21.52171101 257.92436557 -35.20245639 253.83522902 -48.66064453 242.29052734 C-58.1138172 231.68808197 -63.7572004 219.76827691 -63.80781555 205.43676758 C-63.81149224 204.75971457 -63.81516893 204.08266155 -63.81895703 203.38509178 C-63.8299437 201.12309375 -63.83382919 198.86114175 -63.83764648 196.59912109 C-63.8439151 194.97417558 -63.85056226 193.34923148 -63.8575592 191.72428894 C-63.87856085 186.39221182 -63.88896039 181.06013455 -63.89892578 175.72802734 C-63.90297529 173.88800034 -63.90709227 172.04797348 -63.91127586 170.20794678 C-63.93032178 161.55871101 -63.94455207 152.90948372 -63.95288783 144.26023102 C-63.96264761 134.29952141 -63.98893668 124.33903477 -64.02938873 114.37840366 C-64.05963048 106.66521048 -64.07436447 98.9520809 -64.07766885 91.23882961 C-64.08001081 86.63908926 -64.08885903 82.03958726 -64.11413002 77.43991089 C-64.13755621 73.10599248 -64.14158611 68.77246688 -64.13136864 64.43850136 C-64.13087662 62.8571879 -64.13709711 61.27585414 -64.15092468 59.69460106 C-64.29333026 42.42861426 -60.06071298 28.3880341 -48.11376953 15.64990234 C-34.2404907 2.30681252 -18.51406447 -0.01427432 0 0 Z " fill="#0588E1" transform="translate(84.66064453125,41.70947265625)"/>
<path d="M0 0 C-0.16134933 1.1147168 -0.32269867 2.22943359 -0.48893738 3.37792969 C-1.34967477 11.20210141 -1.16506205 19.09182216 -1.17700195 26.953125 C-1.18327537 28.77234016 -1.18992293 30.59155406 -1.19691467 32.4107666 C-1.2178396 38.35716885 -1.22830092 44.30357104 -1.23828125 50.25 C-1.24233206 52.30310072 -1.24644908 54.3562013 -1.25063133 56.40930176 C-1.26965149 66.05056891 -1.28389346 75.69182853 -1.2922433 85.33311081 C-1.30202728 96.44445979 -1.32839041 107.5556102 -1.36874419 118.66688919 C-1.39891641 127.27096346 -1.41371292 135.87498077 -1.41702431 144.4791069 C-1.41937193 149.61185297 -1.4282964 154.74438608 -1.45348549 159.8770752 C-1.47679297 164.70348812 -1.48098867 169.52954816 -1.47072411 174.35600281 C-1.47022942 176.12282995 -1.47652993 177.88967466 -1.49028015 179.65644836 C-1.70593803 192.37404662 -1.70593803 192.37404662 3 204 C3.495 204.79792969 3.99 205.59585938 4.5 206.41796875 C10.09013426 213.01258027 17.32838936 217.68489218 26.07476234 218.54141045 C30.88586642 218.81782606 35.69256504 218.75510382 40.5090332 218.69702148 C42.3516405 218.696966 44.19424945 218.69954709 46.03684998 218.70454407 C51.00786792 218.71050299 55.97802685 218.67949913 60.94887567 218.64129519 C66.16389664 218.60733189 71.37892545 218.60690697 76.59403992 218.60255432 C85.34384942 218.59062285 94.09334209 218.5568877 102.84301758 218.50756836 C115.174582 218.43810346 127.50600504 218.40879911 139.83773291 218.38716781 C149.42960309 218.36885842 159.02144456 218.33947817 168.61328125 218.30859375 C170.1524692 218.30383659 170.1524692 218.30383659 171.72275186 218.29898334 C177.62331031 218.28013399 183.52379772 218.255719 189.42429543 218.22286797 C191.20968351 218.21357291 192.99508084 218.20589063 194.78048325 218.19995499 C197.22095954 218.19145598 199.66132537 218.17685528 202.10176086 218.16062927 C202.80468382 218.1594494 203.50760677 218.15826952 204.23183042 218.15705389 C208.5900731 218.11955277 212.71058215 217.69906665 217 217 C216.60844218 226.20160883 210.79139178 232.94192703 204.3046875 239.0859375 C190.68435689 250.3977375 174.77600561 252.61967892 157.65820312 252.51757812 C156.09561008 252.52301711 154.53302219 252.5301496 152.97044373 252.53881836 C148.77817057 252.55684402 144.5862971 252.55007147 140.39401817 252.53730202 C135.97462381 252.52706527 131.55526018 252.53659695 127.13586426 252.54284668 C119.71893263 252.55009238 112.30216113 252.54061678 104.88525391 252.52148438 C96.35091647 252.49972157 87.81696149 252.50677513 79.2826333 252.52879 C71.91138806 252.54703232 64.5402569 252.54945947 57.16899633 252.53903532 C52.78566071 252.5328486 48.40250392 252.53182991 44.0191803 252.54518127 C39.89516152 252.55686891 35.77162837 252.54848291 31.64766121 252.52560425 C30.14824791 252.52038517 28.64879261 252.52171162 27.1493969 252.53065491 C8.435929 252.63184894 -6.810468 248.49297902 -20.67578125 235.4765625 C-30.53732124 224.96863586 -35.09429316 211.58576391 -35.14717102 197.31192017 C-35.15084771 196.66471429 -35.1545244 196.01750842 -35.1583125 195.35069025 C-35.16927 193.19553654 -35.17317966 191.04043119 -35.17700195 188.88525391 C-35.18327289 187.33399302 -35.18992024 185.78273362 -35.19691467 184.23147583 C-35.21789267 179.14651523 -35.22831518 174.06155456 -35.23828125 168.9765625 C-35.24233195 167.21925212 -35.24644897 165.46194188 -35.25063133 163.70463181 C-35.26967383 155.44142911 -35.28390358 147.17823526 -35.2922433 138.91501486 C-35.30199497 129.41222441 -35.32826416 119.90966817 -35.36874419 110.40696013 C-35.39903562 103.04019379 -35.41372468 95.67349407 -35.41702431 88.30666673 C-35.41936108 83.91755086 -35.4281398 79.52868541 -35.45348549 75.13963699 C-35.47699879 71.00103541 -35.48090758 66.86284499 -35.47072411 62.72419357 C-35.47023413 61.21831635 -35.47639231 59.71241726 -35.49028015 58.206604 C-35.6470536 40.17597767 -31.95584671 24.09490422 -19.1875 10.625 C-13.73357013 5.4625015 -7.77246768 0 0 0 Z " fill="#FEA222" transform="translate(269,218)"/>
<path d="M0 0 C-0.14118854 0.58971808 -0.28237707 1.17943617 -0.42784405 1.7870245 C-2.32577718 10.71988823 -2.28959145 19.53500734 -2.2746582 28.61352539 C-2.27901276 30.37230138 -2.28419837 32.13107548 -2.29014587 33.8898468 C-2.30346402 38.63767094 -2.30412283 43.38541513 -2.30158257 48.13325429 C-2.30050843 52.10690997 -2.30540728 56.08054976 -2.310188 60.05420202 C-2.32125732 69.43108507 -2.32173446 78.80792804 -2.31567383 88.18481445 C-2.30962925 97.83983062 -2.32196327 107.49470125 -2.3432439 117.1496926 C-2.36088324 125.45999007 -2.36685776 133.77024131 -2.36360615 142.08055681 C-2.36179762 147.03496195 -2.36438691 151.98926312 -2.37832069 156.9436512 C-2.39093324 161.60180762 -2.38892262 166.25973745 -2.37590981 170.91789055 C-2.37355231 172.62139845 -2.37624887 174.32492248 -2.38453293 176.02841187 C-2.43836558 187.96398621 -2.00865554 199.40199787 6 209 C13.59415593 215.91946852 21.1658687 219.09939383 31.40974426 219.15821838 C32.70398315 219.1680072 33.99822205 219.17779602 35.3316803 219.18788147 C36.75863611 219.19378492 38.1855923 219.19959541 39.61254883 219.20532227 C41.12065903 219.21490623 42.62876657 219.22491662 44.13687134 219.23532104 C48.22527081 219.26231999 52.31368177 219.28335663 56.40212083 219.30332303 C60.67693049 219.32521353 64.95170496 219.35258722 69.22648621 219.37937927 C77.31884895 219.42926475 85.41123127 219.47421894 93.50363225 219.51740164 C102.71762272 219.56680946 111.93157787 219.62171443 121.14553416 219.67708123 C140.09698996 219.79083763 159.04847912 219.89769046 178 220 C178.02465504 224.39656173 178.04283842 228.7930872 178.05493164 233.18969727 C178.05997121 234.68644918 178.06680287 236.18319616 178.07543945 237.67993164 C178.08752159 239.82699807 178.09323191 241.97399962 178.09765625 244.12109375 C178.10289307 245.4145874 178.10812988 246.70808105 178.11352539 248.04077148 C178 251 178 251 177 252 C174.88006213 252.10569683 172.75654541 252.13968947 170.63398743 252.14717102 C169.96105768 252.15084771 169.28812793 252.1545244 168.59480637 252.1583125 C166.32271819 252.16939181 164.05067567 252.17320051 161.77856445 252.17700195 C160.15583143 252.183264 158.53309986 252.18991056 156.91036987 252.19691467 C151.56135058 252.21800897 146.21233086 252.22833005 140.86328125 252.23828125 C139.02080966 252.24232845 137.17833821 252.24644536 135.33586693 252.25063133 C126.67006338 252.26970399 118.00426839 252.28392404 109.33844787 252.2922433 C99.35223784 252.30198868 89.36625108 252.32822848 79.38011962 252.36874419 C71.65510195 252.39900301 63.93014784 252.41372187 56.2050721 252.41702431 C51.59573903 252.41936602 46.98664385 252.42820935 42.37737465 252.45348549 C38.02955337 252.47693886 33.6821236 252.48093087 29.33425522 252.47072411 C27.74852756 252.4702326 26.16277952 252.4764376 24.5771122 252.49028015 C7.13893352 252.63383823 -6.54181186 248.54470167 -20 237 C-29.45317267 226.39755463 -35.09655587 214.47774956 -35.14717102 200.14624023 C-35.15084771 199.46918722 -35.1545244 198.79213421 -35.1583125 198.09456444 C-35.16929917 195.83256641 -35.17318466 193.5706144 -35.17700195 191.30859375 C-35.18327057 189.68364823 -35.18991772 188.05870414 -35.19691467 186.4337616 C-35.21791632 181.10168447 -35.22831586 175.7696072 -35.23828125 170.4375 C-35.24233076 168.597473 -35.24644774 166.75744614 -35.25063133 164.91741943 C-35.26967725 156.26818366 -35.28390754 147.61895637 -35.2922433 138.96970367 C-35.30200307 129.00899407 -35.32829215 119.04850743 -35.36874419 109.08787632 C-35.39898595 101.37468313 -35.41371994 93.66155355 -35.41702431 85.94830227 C-35.41936628 81.34856192 -35.4282145 76.74905991 -35.45348549 72.14938354 C-35.47691168 67.81546514 -35.48094157 63.48193953 -35.47072411 59.14797401 C-35.47023209 57.56666056 -35.47645258 55.98532679 -35.49028015 54.40407372 C-35.63284012 37.11936855 -31.37600467 23.16058136 -19.484375 10.37109375 C-13.90616527 5.04723635 -7.9136406 -0.2082537 0 0 Z " fill="#0075D3" transform="translate(56,47)"/>
<path d="M0 0 C2.87029869 1.79393668 4.49131638 2.98263276 6 6 C6.08510205 7.9593604 6.10717656 9.92162794 6.09765625 11.8828125 C6.09282227 13.63271484 6.09282227 13.63271484 6.08789062 15.41796875 C6.07532227 17.25294922 6.07532227 17.25294922 6.0625 19.125 C6.05798828 20.35605469 6.05347656 21.58710938 6.04882812 22.85546875 C6.0370133 25.90369392 6.02054028 28.95182314 6 32 C6.57549591 31.98889694 7.15099182 31.97779388 7.743927 31.96635437 C13.74611861 31.85553978 19.74801859 31.78024154 25.75097656 31.7253418 C27.98970345 31.70023307 30.22834864 31.66613914 32.46679688 31.62280273 C35.68900734 31.56199281 38.91013194 31.53375323 42.1328125 31.51171875 C43.12991241 31.48591232 44.12701233 31.4601059 45.15432739 31.43351746 C49.7225718 31.43168313 52.97335304 31.46108519 56.62011719 34.40380859 C59.46408613 37.50626712 60.01272631 38.95774065 60.2421875 43.00390625 C59.82987 46.40220051 58.17991919 48.45676095 56 51 C52.68629 53.20914 51.6553979 53.22481553 47.8125 53.125 C46.91144531 53.10695313 46.01039063 53.08890625 45.08203125 53.0703125 C44.39496094 53.04710937 43.70789063 53.02390625 43 53 C42.87044922 54.14662109 42.87044922 54.14662109 42.73828125 55.31640625 C40.0875889 75.52489566 31.58962502 91.35100806 19 107 C17.99335987 108.3283273 16.99019973 109.65937244 16 111 C23.84937096 114.17053023 31.29166718 115.62549008 39.67919922 116.22802734 C45.36358102 116.69453436 49.99102062 117.73179747 53.9375 122.1875 C55.416442 126.10234648 55.37057278 129.04765059 54 133 C51.86025724 135.93450436 51.23333656 136.75418036 48 138 C32.44963713 139.88911058 13.6261777 136.25121361 0.3046875 127.6796875 C-2.78017346 125.66868754 -2.78017346 125.66868754 -5.51171875 126.5703125 C-6.33285156 127.04210937 -7.15398437 127.51390625 -8 128 C-21.33850055 133.68632789 -34.05100547 138.25599213 -48.6875 138.5625 C-49.81925659 138.60286377 -49.81925659 138.60286377 -50.97387695 138.64404297 C-55.05735601 138.61546461 -56.78615766 138.178814 -59.95703125 135.52734375 C-60.63121094 134.69332031 -61.30539062 133.85929688 -62 133 C-62.33 132.67 -62.66 132.34 -63 132 C-63.44166754 128.94618444 -63.48223087 126.04894358 -63 123 C-60.5625 120 -60.5625 120 -58 118 C-57.505 117.505 -57.505 117.505 -57 117 C-54.89835016 116.83810401 -52.79315916 116.72165321 -50.6875 116.625 C-41.73850626 116.05029398 -33.42672524 114.04298412 -25 111 C-26.42537857 107.76770213 -28.18227947 105.5976741 -30.625 103.0625 C-36.66520605 96.42600304 -43.34668754 87.77092669 -44.375 78.6875 C-43.87765929 73.79698299 -42.42915508 72.42915508 -39 69 C-35.45763286 67.22881643 -31.72969333 67.97335968 -28 69 C-24.52429505 72.15238356 -22.60304497 75.66103613 -20.25 79.6875 C-13.66189178 91.13393816 -13.66189178 91.13393816 -3 98 C8.37595114 87.83425643 17.16817232 72.78278328 20.07446289 57.77832031 C20.24933731 56.88220032 20.42421173 55.98608032 20.60438538 55.06280518 C20.80021461 54.04171661 20.80021461 54.04171661 21 53 C19.98380081 53.00666183 18.96760162 53.01332367 17.92060852 53.02018738 C8.34199031 53.0810132 -1.2365887 53.12597972 -10.81535625 53.15543652 C-15.73986043 53.17108968 -20.66420863 53.19232168 -25.58862305 53.22631836 C-30.34132736 53.25892412 -35.09388169 53.27685564 -39.84668922 53.28463173 C-41.65957818 53.29017304 -43.47245897 53.30099388 -45.28528404 53.31719017 C-47.82537932 53.3389807 -50.36485553 53.34196626 -52.9050293 53.34057617 C-54.02820557 53.35675491 -54.02820557 53.35675491 -55.17407227 53.3732605 C-59.63488385 53.34686059 -62.43651002 52.71915194 -66 50 C-68.34113009 46.98997559 -68.41216607 43.72258458 -68.328125 39.96875 C-67.80947233 36.85683396 -66.21445226 35.14932131 -64 33 C-61.60417654 31.80208827 -60.13222462 31.8793256 -57.45849609 31.88647461 C-56.51767181 31.88655014 -55.57684753 31.88662567 -54.60751343 31.88670349 C-53.58976837 31.89186478 -52.57202332 31.89702606 -51.5234375 31.90234375 C-50.48305328 31.9037587 -49.44266907 31.90517365 -48.37075806 31.90663147 C-45.03880979 31.91224134 -41.70692805 31.92479553 -38.375 31.9375 C-36.11979264 31.94251373 -33.86458422 31.94707686 -31.609375 31.95117188 C-26.07289386 31.96221397 -20.53645168 31.97896173 -15 32 C-15.01571045 31.26885986 -15.0314209 30.53771973 -15.04760742 29.78442383 C-15.11010351 26.4605284 -15.14903752 23.1367568 -15.1875 19.8125 C-15.21263672 18.66201172 -15.23777344 17.51152344 -15.26367188 16.32617188 C-15.27333984 15.21435547 -15.28300781 14.10253906 -15.29296875 12.95703125 C-15.3086792 11.93585205 -15.32438965 10.91467285 -15.34057617 9.86254883 C-14.94204934 6.51292369 -13.99829227 4.69683235 -12 2 C-7.98141405 -0.6790573 -4.72358279 -0.69610694 0 0 Z " fill="#FFFEFD" transform="translate(367,267)"/>
<path d="M0 0 C3.85154768 0.72216519 5.90899052 2.15796593 9 4.5625 C10.86230469 7.44213867 10.86230469 7.44213867 12.421875 10.79296875 C12.71124939 11.40472458 13.00062378 12.01648041 13.29876709 12.64677429 C14.21937503 14.6100797 15.11245913 16.58404869 16 18.5625 C16.2889917 19.19915588 16.5779834 19.83581177 16.87573242 20.49176025 C18.70779911 24.53417719 20.50000922 28.59330779 22.27938843 32.65914917 C28.18518942 46.14175581 34.25850942 59.54073078 40.47042847 72.8848877 C41.68213115 75.48846399 42.89141559 78.09314913 44.09985352 80.69824219 C44.68936546 81.96897583 44.68936546 81.96897583 45.29078674 83.26538086 C46.07126162 84.9478315 46.85172844 86.63028588 47.63218689 88.31274414 C49.45117845 92.23222026 51.27357113 96.15001418 53.10546875 100.06347656 C54.69424418 103.45915962 56.26856221 106.8611581 57.83145142 110.26882935 C58.65858121 112.06229538 59.50126208 113.84856416 60.34448242 115.63452148 C63.40711952 122.34948343 65.36340725 127.51789316 63.375 134.875 C60.63354792 138.23950937 57.17791797 139.36618034 53 140.0625 C49.00948905 139.39741484 46.69376991 137.44727996 44 134.5625 C42.38673809 132.04522156 41.2020253 129.40569473 40.01953125 126.6640625 C39.67999924 125.91087738 39.34046722 125.15769226 38.99064636 124.38168335 C37.9165676 121.98987215 36.86436817 119.58914897 35.8125 117.1875 C35.09581692 115.58270027 34.37773012 113.97852665 33.65820312 112.375 C30.7141454 105.79465557 27.83981675 99.18873909 25 92.5625 C0.25 92.0675 0.25 92.0675 -25 91.5625 C-25.99 94.5325 -26.98 97.5025 -28 100.5625 C-29.15962879 103.38435698 -30.33849183 106.17358255 -31.58203125 108.95703125 C-31.91869308 109.7116716 -32.25535492 110.46631195 -32.60221863 111.24382019 C-33.30972113 112.82218308 -34.01989839 114.39934957 -34.73266602 115.9753418 C-35.45500936 117.58056738 -36.16949119 119.18935286 -36.8762207 120.80151367 C-37.90709135 123.15298612 -38.96048867 125.49313488 -40.01953125 127.83203125 C-40.48393364 128.90708672 -40.48393364 128.90708672 -40.9577179 130.00386047 C-43.12469517 134.69397698 -45.27364844 137.10212768 -50 139.5625 C-54.31109527 140.167566 -56.20847539 140.0787117 -59.875 137.6875 C-62.83214792 134.73035208 -63.18437476 133.05752123 -63.28710938 128.97998047 C-63.22247457 123.55636669 -61.80212723 119.68310004 -59.40625 114.8828125 C-59.02827271 114.08535614 -58.65029541 113.28789978 -58.26086426 112.46627808 C-57.44776399 110.75605553 -56.62601647 109.04992171 -55.79638672 107.34765625 C-54.0213046 103.70522787 -52.28834116 100.04326508 -50.55249023 96.38201904 C-49.6609168 94.50246049 -48.76718662 92.62392352 -47.87133789 90.74639893 C-44.08602385 82.80171357 -40.4852053 74.78517241 -36.95037842 66.72653198 C-31.10197092 53.40958304 -25.16960402 40.12727043 -19.13378906 26.89428711 C-18.30245765 25.06539024 -17.47649899 23.2340405 -16.65625 21.40014648 C-15.51193639 18.84449706 -14.34831786 16.29850975 -13.1796875 13.75390625 C-12.84589081 12.99727188 -12.51209412 12.24063751 -12.16818237 11.46107483 C-9.56592076 5.87807922 -6.44371693 1.20819692 0 0 Z " fill="#FCFDFE" transform="translate(149,100.4375)"/>
<path d="M0 0 C5.5 3 5.5 3 7 6 C7.12068473 8.68775731 7.1856716 11.35403215 7.2109375 14.04296875 C7.23902217 15.69076487 7.26768673 17.33855119 7.296875 18.98632812 C7.33801178 21.58210813 7.37490017 24.17770836 7.40136719 26.77368164 C7.42913821 29.28049561 7.47502484 31.78647939 7.5234375 34.29296875 C7.52669037 35.05989548 7.52994324 35.8268222 7.53329468 36.61698914 C7.64954111 41.76592871 8.54684817 45.44089501 11 50 C14.24284779 52.16189853 15.10096221 52.24626755 18.83862305 52.22705078 C19.8194133 52.22689972 20.80020355 52.22674866 21.81071472 52.22659302 C23.39521172 52.21110916 23.39521172 52.21110916 25.01171875 52.1953125 C26.63676079 52.19106766 26.63676079 52.19106766 28.29463196 52.18673706 C31.75903308 52.17553091 35.22317685 52.15042534 38.6875 52.125 C41.03450148 52.11497077 43.381507 52.10584482 45.72851562 52.09765625 C51.48576507 52.07559016 57.24286415 52.04210827 63 52 C62.5153125 51.25621094 62.030625 50.51242187 61.53125 49.74609375 C59.52789821 46.15334806 59.14567343 42.97650183 60 39 C61.75607646 35.98215009 63.82936435 33.58531783 67 32 C71.94032319 31.4037541 74.73913634 31.40431657 78.72265625 34.48828125 C83.42583787 38.1920094 87.61984176 42.3620324 91.8125 46.625 C92.56208984 47.37523437 93.31167969 48.12546875 94.08398438 48.8984375 C103.43493822 58.32460009 103.43493822 58.32460009 103.625 63.75 C103.43124683 67.79668455 102.80527494 69.7865965 100.03515625 72.7421875 C99.40061523 73.42603516 98.76607422 74.10988281 98.11230469 74.81445312 C97.41524414 75.53568359 96.71818359 76.25691406 96 77 C94.91187012 78.13598633 94.91187012 78.13598633 93.80175781 79.29492188 C91.49257645 81.67623428 89.1570412 84.02852596 86.8125 86.375 C86.01908203 87.18066406 85.22566406 87.98632812 84.40820312 88.81640625 C83.64056641 89.58597656 82.87292969 90.35554688 82.08203125 91.1484375 C81.39343018 91.84114746 80.7048291 92.53385742 79.99536133 93.24755859 C77.11929323 95.77348748 74.91917862 96.88010714 71.125 97.375 C67.15512486 96.89861498 65.10463464 95.46959574 62 93 C59.88662454 89.82993681 59.70308567 87.96572363 59.5390625 84.23046875 C60.21309352 80.96884407 62.12883263 78.71544068 64 76 C63.34569 75.99635437 62.69138 75.99270874 62.01724243 75.98895264 C55.17048375 75.94694935 48.32438432 75.8774794 41.47802734 75.79248047 C38.92731336 75.76435829 36.37651365 75.74310051 33.82568359 75.72900391 C30.14636623 75.70745382 26.46807019 75.66073865 22.7890625 75.609375 C21.65949127 75.60814636 20.52992004 75.60691772 19.36611938 75.60565186 C9.27307843 75.42143554 1.19749669 73.01082011 -6.24609375 65.98828125 C-13.25118804 58.04709419 -15.30799435 49.07249625 -15.3359375 38.77734375 C-15.3425943 37.91363663 -15.3492511 37.0499295 -15.35610962 36.16004944 C-15.36618444 34.34394445 -15.37092825 32.52780283 -15.37060547 30.71166992 C-15.37499299 27.94192661 -15.41140535 25.17376044 -15.44921875 22.40429688 C-15.45508527 20.63281791 -15.45905577 18.86133143 -15.4609375 17.08984375 C-15.47530853 16.26781967 -15.48967957 15.44579559 -15.50448608 14.59886169 C-15.46230902 9.2676048 -14.55868456 6.21512139 -11 2 C-7.29825261 -0.4678316 -4.29506525 -0.68072732 0 0 Z " fill="#AFB4C2" transform="translate(89,341)"/>
<path d="M0 0 C3.6578218 2.03993908 5.66946174 3.50419262 8 7 C8.63167823 13.42206196 7.71691647 15.60600567 4 21 C4.981465 21.00546844 4.981465 21.00546844 5.98275757 21.01104736 C12.82951625 21.05305065 19.67561568 21.1225206 26.52197266 21.20751953 C29.07268664 21.23564171 31.62348635 21.25689949 34.17431641 21.27099609 C37.85363377 21.29254618 41.53192981 21.33926135 45.2109375 21.390625 C46.34050873 21.39185364 47.47007996 21.39308228 48.63388062 21.39434814 C58.72692157 21.57856446 66.80250331 23.98917989 74.24609375 31.01171875 C81.25118804 38.95290581 83.30799435 47.92750375 83.3359375 58.22265625 C83.3425943 59.08636337 83.3492511 59.9500705 83.35610962 60.83995056 C83.36618444 62.65605555 83.37092825 64.47219717 83.37060547 66.28833008 C83.37499299 69.05807339 83.41140535 71.82623956 83.44921875 74.59570312 C83.45508527 76.36718209 83.45905577 78.13866857 83.4609375 79.91015625 C83.47530853 80.73218033 83.48967957 81.55420441 83.50448608 82.40113831 C83.46230902 87.7323952 82.55868456 90.78487861 79 95 C75.29825261 97.4678316 72.29506525 97.68072732 68 97 C62.5 94 62.5 94 61 91 C60.87931527 88.31224269 60.8143284 85.64596785 60.7890625 82.95703125 C60.76097783 81.30923513 60.73231327 79.66144881 60.703125 78.01367188 C60.66198822 75.41789187 60.62509983 72.82229164 60.59863281 70.22631836 C60.57086179 67.71950439 60.52497516 65.21352061 60.4765625 62.70703125 C60.47330963 61.94010452 60.47005676 61.1731778 60.46670532 60.38301086 C60.35045889 55.23407129 59.45315183 51.55910499 57 47 C53.75715221 44.83810147 52.89903779 44.75373245 49.16137695 44.77294922 C48.1805867 44.77310028 47.19979645 44.77325134 46.18928528 44.77340698 C45.13295395 44.78372955 44.07662262 44.79405212 42.98828125 44.8046875 C41.36323921 44.80893234 41.36323921 44.80893234 39.70536804 44.81326294 C36.24096692 44.82446909 32.77682315 44.84957466 29.3125 44.875 C26.96549852 44.88502923 24.618493 44.89415518 22.27148438 44.90234375 C16.51423493 44.92440984 10.75713585 44.95789173 5 45 C5.4846875 45.74378906 5.969375 46.48757812 6.46875 47.25390625 C8.47210179 50.84665194 8.85432657 54.02349817 8 58 C6.24392354 61.01784991 4.17063565 63.41468217 1 65 C-3.9430171 65.59657103 -6.73882536 65.59568774 -10.72265625 62.5078125 C-15.41218447 58.81374422 -19.61818604 54.67623741 -23.8125 50.4375 C-24.56208984 49.69564453 -25.31167969 48.95378906 -26.08398438 48.18945312 C-26.80521484 47.46564453 -27.52644531 46.74183594 -28.26953125 45.99609375 C-28.91510986 45.34825928 -29.56068848 44.7004248 -30.22583008 44.03295898 C-33.97393817 39.7381336 -35.81207008 36.13573775 -35.50317383 30.44189453 C-34.90995021 27.56298979 -34.02033115 26.43421355 -32.03515625 24.29296875 C-31.40061523 23.60404541 -30.76607422 22.91512207 -30.11230469 22.20532227 C-29.06671387 21.11368774 -29.06671387 21.11368774 -28 20 C-27.27458008 19.24195068 -26.54916016 18.48390137 -25.80175781 17.70288086 C-23.49186537 15.32305906 -21.15663646 12.97106897 -18.8125 10.625 C-18.01908203 9.81933594 -17.22566406 9.01367188 -16.40820312 8.18359375 C-15.64056641 7.41402344 -14.87292969 6.64445312 -14.08203125 5.8515625 C-13.39343018 5.15885254 -12.7048291 4.46614258 -11.99536133 3.75244141 C-8.1596719 0.38371772 -5.11100294 -0.61332035 0 0 Z " fill="#AFB4C2" transform="translate(355,74)"/>
<path d="M0 0 C2.61203201 3.19329019 4.24751647 6.46231089 5.91796875 10.2265625 C6.44970703 11.4228125 6.98144531 12.6190625 7.52929688 13.8515625 C7.93716431 14.7801709 7.93716431 14.7801709 8.35327148 15.72753906 C9.18912057 17.62868601 10.03437759 19.52544203 10.88085938 21.421875 C15 30.73646406 15 30.73646406 15 33 C5.43 33 -4.14 33 -14 33 C-13.13996118 28.69980591 -12.07958437 25.59337475 -10.3125 21.640625 C-9.77882812 20.44308594 -9.24515625 19.24554688 -8.6953125 18.01171875 C-8.41719727 17.39474121 -8.13908203 16.77776367 -7.85253906 16.14208984 C-6.99747386 14.24439359 -6.15049356 12.34324479 -5.3046875 10.44140625 C-1.14304061 1.14304061 -1.14304061 1.14304061 0 0 Z " fill="#0F8CE3" transform="translate(149,138)"/>
</svg>
